<svg id="visual" viewBox="0 0 900 600" width="900" height="600" xmlns="http://www.w3.org/2000/svg" xmlns:xlink="http://www.w3.org/1999/xlink" version="1.1"><rect x="0" y="0" width="900" height="600" fill="#ffffff"></rect><defs><linearGradient id="grad1_0" x1="33.3%" y1="100%" x2="100%" y2="0%"><stop offset="20%" stop-color="#bcd5d9" stop-opacity="1"></stop><stop offset="80%" stop-color="#bcd5d9" stop-opacity="1"></stop></linearGradient></defs><defs><linearGradient id="grad1_1" x1="33.3%" y1="100%" x2="100%" y2="0%"><stop offset="20%" stop-color="#bcd5d9" stop-opacity="1"></stop><stop offset="80%" stop-color="#ddeaec" stop-opacity="1"></stop></linearGradient></defs><defs><linearGradient id="grad1_2" x1="33.3%" y1="100%" x2="100%" y2="0%"><stop offset="20%" stop-color="#ffffff" stop-opacity="1"></stop><stop offset="80%" stop-color="#ddeaec" stop-opacity="1"></stop></linearGradient></defs><defs><linearGradient id="grad2_0" x1="0%" y1="100%" x2="66.7%" y2="0%"><stop offset="20%" stop-color="#bcd5d9" stop-opacity="1"></stop><stop offset="80%" stop-color="#bcd5d9" stop-opacity="1"></stop></linearGradient></defs><defs><linearGradient id="grad2_1" x1="0%" y1="100%" x2="66.7%" y2="0%"><stop offset="20%" stop-color="#ddeaec" stop-opacity="1"></stop><stop offset="80%" stop-color="#bcd5d9" stop-opacity="1"></stop></linearGradient></defs><defs><linearGradient id="grad2_2" x1="0%" y1="100%" x2="66.7%" y2="0%"><stop offset="20%" stop-color="#ddeaec" stop-opacity="1"></stop><stop offset="80%" stop-color="#ffffff" stop-opacity="1"></stop></linearGradient></defs><g transform="translate(900, 600)"><path d="M-297.5 0C-221.3 -12.3 -145.2 -24.5 -129.9 -75C-114.6 -125.5 -160.2 -214.2 -148.7 -257.6C-137.2 -301.1 -68.6 -299.3 0 -297.5L0 0Z" fill="#eef4f5"></path><path d="M-198.3 0C-147.5 -8.2 -96.8 -16.4 -86.6 -50C-76.4 -83.6 -106.8 -142.8 -99.2 -171.7C-91.5 -200.7 -45.7 -199.5 0 -198.3L0 0Z" fill="#cddfe2"></path><path d="M-99.2 0C-73.8 -4.1 -48.4 -8.2 -43.3 -25C-38.2 -41.8 -53.4 -71.4 -49.6 -85.9C-45.7 -100.4 -22.9 -99.8 0 -99.2L0 0Z" fill="#bcd5d9"></path></g><g transform="translate(0, 0)"><path d="M297.5 0C292.9 57.5 288.3 115.1 257.6 148.7C227 182.4 170.3 192.2 123 213C75.7 233.9 37.9 265.7 0 297.5L0 0Z" fill="#eef4f5"></path><path d="M198.3 0C195.2 38.4 192.2 76.7 171.7 99.2C151.3 121.6 113.5 128.2 82 142C50.5 155.9 25.2 177.1 0 198.3L0 0Z" fill="#cddfe2"></path><path d="M99.2 0C97.6 19.2 96.1 38.4 85.9 49.6C75.7 60.8 56.8 64.1 41 71C25.2 78 12.6 88.6 0 99.2L0 0Z" fill="#bcd5d9"></path></g></svg>