<svg id="visual" viewBox="0 0 1330 447" width="1330" height="447" xmlns="http://www.w3.org/2000/svg" xmlns:xlink="http://www.w3.org/1999/xlink" version="1.1"><rect x="0" y="0" width="1330" height="447" fill="#101828"></rect><path d="M0 91L24.7 96.2C49.3 101.3 98.7 111.7 148 114.2C197.3 116.7 246.7 111.3 295.8 105.3C345 99.3 394 92.7 443.2 98.7C492.3 104.7 541.7 123.3 591 124.5C640.3 125.7 689.7 109.3 739 100.5C788.3 91.7 837.7 90.3 886.8 90.5C936 90.7 985 92.3 1034.2 89.3C1083.3 86.3 1132.7 78.7 1182 78.2C1231.3 77.7 1280.7 84.3 1305.3 87.7L1330 91L1330 0L1305.3 0C1280.7 0 1231.3 0 1182 0C1132.7 0 1083.3 0 1034.2 0C985 0 936 0 886.8 0C837.7 0 788.3 0 739 0C689.7 0 640.3 0 591 0C541.7 0 492.3 0 443.2 0C394 0 345 0 295.8 0C246.7 0 197.3 0 148 0C98.7 0 49.3 0 24.7 0L0 0Z" fill="#c9a5b4"></path><path d="M0 74L24.7 78.8C49.3 83.7 98.7 93.3 148 95.7C197.3 98 246.7 93 295.8 88.2C345 83.3 394 78.7 443.2 76.2C492.3 73.7 541.7 73.3 591 73.7C640.3 74 689.7 75 739 71.8C788.3 68.7 837.7 61.3 886.8 66.7C936 72 985 90 1034.2 96.8C1083.3 103.7 1132.7 99.3 1182 89.8C1231.3 80.3 1280.7 65.7 1305.3 58.3L1330 51L1330 0L1305.3 0C1280.7 0 1231.3 0 1182 0C1132.7 0 1083.3 0 1034.2 0C985 0 936 0 886.8 0C837.7 0 788.3 0 739 0C689.7 0 640.3 0 591 0C541.7 0 492.3 0 443.2 0C394 0 345 0 295.8 0C246.7 0 197.3 0 148 0C98.7 0 49.3 0 24.7 0L0 0Z" fill="#6d6075"></path><path d="M0 33L24.7 35.7C49.3 38.3 98.7 43.7 148 50C197.3 56.3 246.7 63.7 295.8 66.5C345 69.3 394 67.7 443.2 66.5C492.3 65.3 541.7 64.7 591 61C640.3 57.3 689.7 50.7 739 50.5C788.3 50.3 837.7 56.7 886.8 56.3C936 56 985 49 1034.2 51C1083.3 53 1132.7 64 1182 66.8C1231.3 69.7 1280.7 64.3 1305.3 61.7L1330 59L1330 0L1305.3 0C1280.7 0 1231.3 0 1182 0C1132.7 0 1083.3 0 1034.2 0C985 0 936 0 886.8 0C837.7 0 788.3 0 739 0C689.7 0 640.3 0 591 0C541.7 0 492.3 0 443.2 0C394 0 345 0 295.8 0C246.7 0 197.3 0 148 0C98.7 0 49.3 0 24.7 0L0 0Z" fill="#1d2433"></path></svg>